<svg width="24" height="24" viewBox="0 0 24 24" fill="none" xmlns="http://www.w3.org/2000/svg">
<path d="M19.5751 10.5668C19.3095 10.4924 19.0328 10.6429 18.9569 10.9029C18.8809 11.1628 19.0346 11.4339 19.3001 11.5082C21.5823 12.1473 23 13.0742 23 13.9273C23 14.5516 22.2245 15.2368 20.8724 15.8073C19.3848 16.435 17.2745 16.8942 14.9278 17.101L12.8797 17.0739C12.8773 17.0739 12.875 17.0738 12.8727 17.0738C12.5997 17.0738 12.3766 17.2887 12.3729 17.5568C12.3692 17.8271 12.59 18.0493 12.8661 18.0529L14.94 18.0804C14.9423 18.0804 14.9446 18.0805 14.9468 18.0805C14.9617 18.0805 14.9765 18.0798 14.9912 18.0786C17.451 17.8638 19.6802 17.3766 21.2681 16.7066C23.5261 15.7538 24 14.6693 24 13.9273C24 12.5593 22.4285 11.3658 19.5751 10.5668Z" fill="#271A45"/>
<path d="M4.84397 10.0091C4.56787 10.0091 4.34397 10.2282 4.34397 10.4986C4.34397 10.769 4.56787 10.9882 4.84397 10.9882H6.90003V13.0117H4.84397C4.56787 13.0117 4.34397 13.2309 4.34397 13.5013C4.34397 13.7717 4.56787 13.9909 4.84397 13.9909H7.40003C7.67618 13.9909 7.90003 13.7717 7.90003 13.5013V7.49594C7.90003 7.22555 7.67618 7.00637 7.40003 7.00637H4.84397C4.56787 7.00637 4.34397 7.22555 4.34397 7.49594C4.34397 7.76633 4.56787 7.98551 4.84397 7.98551H6.90003V10.0091H4.84397Z" fill="#271A45"/>
<path d="M9.44396 13.9909H12.5107C12.7868 13.9909 13.0107 13.7718 13.0107 13.5014V10.4987C13.0107 10.2283 12.7868 10.0091 12.5107 10.0091H9.94396V7.98551H12C12.2762 7.98551 12.5 7.76633 12.5 7.49594C12.5 7.22555 12.2762 7.00637 12 7.00637H9.44396C9.16781 7.00637 8.94396 7.22555 8.94396 7.49594V13.5014C8.94396 13.7718 9.16781 13.9909 9.44396 13.9909ZM9.94396 10.9882H12.0107V13.0117H9.94396V10.9882Z" fill="#271A45"/>
<path d="M14.5561 13.9909H17.6228C17.8989 13.9909 18.1228 13.7718 18.1228 13.5014V7.49594C18.1228 7.22555 17.8989 7.00637 17.6228 7.00637H14.5561C14.28 7.00637 14.0561 7.22555 14.0561 7.49594V13.5014C14.0561 13.7718 14.28 13.9909 14.5561 13.9909ZM15.0561 7.98551H17.1228V13.0118H15.0561V7.98551Z" fill="#271A45"/>
<path d="M9.14285 15.2085C8.9645 15.0021 8.649 14.9763 8.4382 15.1509C8.22735 15.3256 8.20105 15.6344 8.37935 15.8409L9.49765 17.1353C7.13785 16.9591 5.0006 16.5356 3.42915 15.9285C1.8854 15.332 1 14.6027 1 13.9273C1 13.1431 2.1868 12.298 4.17465 11.6667C4.43735 11.5832 4.5812 11.3071 4.496 11.0499C4.41085 10.7927 4.12875 10.6519 3.86615 10.7352C2.7097 11.1025 1.79265 11.5395 1.1404 12.0339C0.3837 12.6077 0 13.2446 0 13.9273C0 15.0584 1.0589 16.0653 3.0621 16.8393C4.6903 17.4683 6.87345 17.9099 9.2734 18.1003L8.2762 19.1825C8.0912 19.3832 8.1074 19.6928 8.31245 19.8739C8.40805 19.9584 8.52785 20 8.64725 20C8.7838 20 8.9199 19.9455 9.0186 19.8384L10.838 17.8642C10.9209 17.7743 10.9668 17.6574 10.9668 17.5362V17.4988C10.9668 17.383 10.9249 17.271 10.8485 17.1827L9.14285 15.2085Z" fill="#271A45"/>
<path d="M19.0707 6.9812H21.1147C21.3908 6.9812 21.6147 6.76202 21.6147 6.49163V4.48957C21.6147 4.21918 21.3908 4 21.1147 4H19.0707C18.7946 4 18.5707 4.21918 18.5707 4.48957V6.49163C18.5707 6.76202 18.7946 6.9812 19.0707 6.9812ZM19.5707 4.97914H20.6147V6.00206H19.5707V4.97914Z" fill="#271A45"/>
</svg>
